# xmcd
#
# Track frame offsets: 
#        150
#        30241
#        52534
#        73815
#        95862
#        109072
#        141118
#        162753
#        187239
#        209536
#        236179
#        255941
#        279456
#        304974
#
# Disc length: 4390 seconds
#
# Revision: 0
# Processed by: cddbd v1.5.1PL0 Copyright (c) Steve Scherf et al.
# Submitted via: ExactAudioCopy v0.95b2
#
DISCID=c811240e
DTITLE=Various Artist - Seismic Records Presents The Hardstyle Album CD2
DYEAR=1900
DGENRE=Dance
TTITLE0=The Beholder and Balistic feat. Max Enforcer - Decibel 2003 (Liv
TTITLE0=e Mix)
TTITLE1=Zero Vision - Beating Of The Drums
TTITLE2=Geal - Losing My Feelin' (The Beholder and Balistic rmx)
TTITLE3=The Dude feat. The Beholder and Balistic - Mastermind
TTITLE4=DJ Zemtec - Kick It!
TTITLE5=Zero Vision - Right Here (Showtek rmx)
TTITLE6=The Beholder and Balistic - Hardbass Extreme
TTITLE7=DJ Zemtec - Bring Me Ur Silence (The Beholder and Max Enforcer r
TTITLE7=mx)
TTITLE8=The Beholder and Max Enforcer - Pulse Protraction (Warptool Mix)
TTITLE9=The Beholder and Balistic feat. Max Enforcer - Bigger, Better, L
TTITLE9=ouder!
TTITLE10=Zero Vision - Overdrive (Scantraxx rmx)
TTITLE11=DJ Rob - Boy's Interface (The Beholder and Max Enforcer rmx)
TTITLE12=Hardheadz - Wreck The RMX (The Beholder and Max Enforcer rmx)
TTITLE13=The Beholder and Balistic - Decibel Anthem
EXTD=
EXTT0=
EXTT1=
EXTT2=
EXTT3=
EXTT4=
EXTT5=
EXTT6=
EXTT7=
EXTT8=
EXTT9=
EXTT10=
EXTT11=
EXTT12=
EXTT13=
PLAYORDER=
